<svg width="20" height="20" viewBox="0 0 20 20" fill="none" xmlns="http://www.w3.org/2000/svg">
<g id="Icon / GIF">
<path id="Vector" d="M15 16.6667H5.00001C4.55798 16.6667 4.13406 16.4911 3.8215 16.1785C3.50894 15.8659 3.33334 15.442 3.33334 15V4.99999C3.33334 4.55797 3.50894 4.13404 3.8215 3.82148C4.13406 3.50892 4.55798 3.33333 5.00001 3.33333H15C15.442 3.33333 15.866 3.50892 16.1785 3.82148C16.4911 4.13404 16.6667 4.55797 16.6667 4.99999V15C16.6667 15.442 16.4911 15.8659 16.1785 16.1785C15.866 16.4911 15.442 16.6667 15 16.6667Z" stroke="white" stroke-width="1.4" stroke-linecap="round" stroke-linejoin="round"/>
<path id="GIF" d="M7.32944 10.1564H7.22944V10.2564V10.8431V10.9431H7.32944H8.17703C8.14597 11.1945 8.03749 11.3842 7.87586 11.5161C7.69058 11.6672 7.42546 11.7504 7.10203 11.7504C6.66213 11.7504 6.36047 11.5969 6.16655 11.359C5.97005 11.118 5.87443 10.7782 5.87443 10.3909C5.87443 10.0322 5.9694 9.70117 6.16494 9.46188C6.35804 9.22557 6.65722 9.06863 7.08974 9.06863C7.35177 9.06863 7.58437 9.1269 7.77304 9.24511C7.96073 9.3627 8.11071 9.54314 8.2035 9.79836L8.23844 9.89446L8.33374 9.85739L9.02519 9.58838L9.12447 9.54976L9.07966 9.45312C8.71147 8.65914 7.98555 8.23333 7.09588 8.23333C6.35402 8.23333 5.80151 8.4872 5.43541 8.89425C5.07089 9.29953 4.9 9.84674 4.9 10.4195C4.9 10.9942 5.07421 11.54 5.44116 11.9434C5.80957 12.3484 6.36343 12.6 7.10203 12.6C7.60144 12.6 8.03603 12.424 8.31615 12.1281L8.35491 12.4546L8.36538 12.5428H8.45421H9.07191H9.17191V12.4428V10.2564V10.1564H9.07191H7.32944ZM9.92151 12.4428V12.5428H10.0215H10.8021H10.9021V12.4428V8.39915V8.29915H10.8021H10.0215H9.92151V8.39915V12.4428ZM11.8207 12.4428V12.5428H11.9207H12.7013H12.8013V12.4428V10.8543H14.7296H14.8296V10.7543V10.0876V9.98756H14.7296H12.8013V9.16593H15H15.1V9.06593V8.39915V8.29915H15H11.9207H11.8207V8.39915V12.4428Z" fill="white" stroke="white" stroke-width="0.2"/>
</g>
</svg>
