<svg id="SvgjsSvg1111" width="288" height="288" xmlns="http://www.w3.org/2000/svg" version="1.1" xmlns:xlink="http://www.w3.org/1999/xlink" xmlns:svgjs="http://svgjs.com/svgjs"><defs id="SvgjsDefs1112"></defs><g id="SvgjsG1113"><svg xmlns="http://www.w3.org/2000/svg" viewBox="0 0 16 16" width="288" height="288"><path fill="#7776c3" d="M4.143 1A3.147 3.147 0 0 0 1 4.143v5.712A3.148 3.148 0 0 0 4.143 13h4.205a3.49 3.49 0 0 0 3.144 1.992c1.93 0 3.5-1.57 3.5-3.5 0-1.388-.817-2.58-1.992-3.144V4.143A3.148 3.148 0 0 0 9.855 1H4.143Zm2.841 3.025a1.492 1.492 0 1 1-1.492 1.492c0-.821.67-1.492 1.492-1.492zm-.03 4.967c.613 0 1.209.142 1.753.406a3.462 3.462 0 0 0-.715 2.094c0 .173.029.341.053.508H4.143c-.358 0-.692-.098-.989-.254a3.987 3.987 0 0 1 3.8-2.754zm4.538 0c1.38 0 2.5 1.121 2.5 2.5 0 1.38-1.122 2.5-2.5 2.5a2.502 2.502 0 0 1-2.5-2.5c0-1.379 1.121-2.5 2.5-2.5zm.01.846-1.766 1.267.584.813.686-.492v1.564h1v-1.58l.728.512.575-.82-1.807-1.264z" class="color231f20 svgShape"></path></svg></g></svg>