<svg width="20" height="20" viewBox="0 0 20 20" fill="none" xmlns="http://www.w3.org/2000/svg">
<g id="Icon / Image">
<path id="Vector" d="M3.33334 13.3333L7.15501 9.51166C7.46756 9.19921 7.8914 9.02368 8.33334 9.02368C8.77528 9.02368 9.19913 9.19921 9.51168 9.51166L13.3333 13.3333M11.6667 11.6667L12.9883 10.345C13.3009 10.0325 13.7247 9.85702 14.1667 9.85702C14.6086 9.85702 15.0325 10.0325 15.345 10.345L16.6667 11.6667M11.6667 6.66666H11.675M5.00001 16.6667H15C15.442 16.6667 15.866 16.4911 16.1785 16.1785C16.4911 15.8659 16.6667 15.442 16.6667 15V4.99999C16.6667 4.55797 16.4911 4.13404 16.1785 3.82148C15.866 3.50892 15.442 3.33333 15 3.33333H5.00001C4.55798 3.33333 4.13406 3.50892 3.8215 3.82148C3.50894 4.13404 3.33334 4.55797 3.33334 4.99999V15C3.33334 15.442 3.50894 15.8659 3.8215 16.1785C4.13406 16.4911 4.55798 16.6667 5.00001 16.6667Z" stroke="white" stroke-width="1.4" stroke-linecap="round" stroke-linejoin="round"/>
</g>
</svg>
