<svg width="22" height="22" viewBox="0 0 22 22" fill="none" xmlns="http://www.w3.org/2000/svg">
<g id="password">
<path id="Vector" d="M10.8387 4.6031C6.42916 4.6031 2.6634 7.34585 1.1377 11.2174C2.6634 15.089 6.42916 17.8318 10.8387 17.8318C15.2483 17.8318 19.014 15.089 20.5397 11.2174C19.014 7.34585 15.2483 4.6031 10.8387 4.6031ZM10.8387 15.627C8.40465 15.627 6.42916 13.6515 6.42916 11.2174C6.42916 8.78336 8.40465 6.80788 10.8387 6.80788C13.2728 6.80788 15.2483 8.78336 15.2483 11.2174C15.2483 13.6515 13.2728 15.627 10.8387 15.627ZM10.8387 8.5717C9.37475 8.5717 8.19299 9.75347 8.19299 11.2174C8.19299 12.6814 9.37475 13.8632 10.8387 13.8632C12.3027 13.8632 13.4845 12.6814 13.4845 11.2174C13.4845 9.75347 12.3027 8.5717 10.8387 8.5717Z" fill="#111110"/>
</g>
</svg>
